<?xml version="1.0" encoding="iso-8859-1"?>
<!-- Generator: Adobe Illustrator 19.0.0, SVG Export Plug-In . SVG Version: 6.00 Build 0)  -->
<svg version="1.1" id="Capa_1" xmlns="http://www.w3.org/2000/svg" xmlns:xlink="http://www.w3.org/1999/xlink" x="0px" y="0px"
	 viewBox="0 0 512 512" style="enable-background:new 0 0 512 512;" xml:space="preserve">
<circle style="fill:#93D632;" cx="256" cy="256" r="256"/>
<path style="fill:#86C42B;" d="M512,256c0-0.376-0.013-0.749-0.014-1.124L447,189.89l-293.81,18.396l-41.952,60.927L214.315,372.29
	l-71.777,53.936l84.087,84.087C236.266,511.414,246.064,512,256,512C397.385,512,512,397.385,512,256z"/>
<polygon style="fill:#FE6A16;" points="142.538,113.775 65,189.89 111.238,269.212 142.829,239.416 "/>
<polygon style="fill:#FA5D0F;" points="369.462,113.775 447,189.89 400.762,269.212 369.171,239.416 "/>
<rect x="142.54" y="113.78" style="fill:#FFE733;" width="226.92" height="312.45"/>
<rect x="255.57" y="113.77" style="fill:#F2D813;" width="113.89" height="312.45"/>
<polygon style="fill:#555A66;" points="318.68,362.509 275.5,405.689 275.5,243.646 236.5,243.646 236.5,405.689 193.32,362.509 
	165.742,390.086 256,480.343 346.258,390.086 "/>
<polygon style="fill:#414952;" points="256,480.343 346.258,390.086 318.68,362.509 275.5,405.689 275.5,243.646 255.571,243.646 
	"/>
<path style="fill:#FE6A16;" d="M305.084,113.775c0,27.108-21.976,49.084-49.084,49.084s-49.084-21.976-49.084-49.084
	C206.916,113.775,305.084,113.775,305.084,113.775z"/>
<path style="fill:#FA5D0F;" d="M255.571,113.774v49.073c0.143,0.001,0.285,0.011,0.429,0.011c27.108,0,49.084-21.976,49.084-49.084
	H255.571z"/>
<g>
</g>
<g>
</g>
<g>
</g>
<g>
</g>
<g>
</g>
<g>
</g>
<g>
</g>
<g>
</g>
<g>
</g>
<g>
</g>
<g>
</g>
<g>
</g>
<g>
</g>
<g>
</g>
<g>
</g>
</svg>
