<?xml version="1.0" encoding="iso-8859-1"?>
<!-- Generator: Adobe Illustrator 19.0.0, SVG Export Plug-In . SVG Version: 6.00 Build 0)  -->
<svg version="1.1" id="Capa_1" xmlns="http://www.w3.org/2000/svg" xmlns:xlink="http://www.w3.org/1999/xlink" x="0px" y="0px"
	 viewBox="0 0 512 512" style="enable-background:new 0 0 512 512;" xml:space="preserve">
<circle style="fill:#F05E3A;" cx="256" cy="256" r="256"/>
<rect x="62.1" y="144.33" style="fill:#FFFFFF;" width="363.68" height="34.813"/>
<rect x="62.1" y="161.86" style="fill:#F0F0F0;" width="363.68" height="17.29"/>
<rect x="226.85" y="144.33" style="fill:#E9EDF5;" width="198.93" height="248.67"/>
<rect x="326" y="144.33" style="fill:#CDD2E1;" width="99.78" height="248.67"/>
<rect x="376.05" y="144.33" style="fill:#636978;" width="49.733" height="49.733"/>
<rect x="276.58" y="144.33" style="fill:#707789;" width="49.733" height="49.733"/>
<rect x="326.31" y="194.07" style="fill:#636978;" width="49.733" height="49.733"/>
<rect x="226.85" y="194.07" style="fill:#707789;" width="49.733" height="49.733"/>
<rect x="376.05" y="243.8" style="fill:#636978;" width="49.733" height="49.733"/>
<rect x="276.58" y="243.8" style="fill:#707789;" width="49.733" height="49.733"/>
<rect x="326.31" y="293.53" style="fill:#636978;" width="49.733" height="49.733"/>
<rect x="226.85" y="293.53" style="fill:#707789;" width="49.733" height="49.733"/>
<rect x="376.05" y="343.27" style="fill:#636978;" width="49.733" height="49.733"/>
<rect x="276.58" y="343.27" style="fill:#707789;" width="49.733" height="49.733"/>
<g>
</g>
<g>
</g>
<g>
</g>
<g>
</g>
<g>
</g>
<g>
</g>
<g>
</g>
<g>
</g>
<g>
</g>
<g>
</g>
<g>
</g>
<g>
</g>
<g>
</g>
<g>
</g>
<g>
</g>
</svg>
