<?xml version="1.0" encoding="iso-8859-1"?>
<!-- Generator: Adobe Illustrator 21.0.0, SVG Export Plug-In . SVG Version: 6.00 Build 0)  -->
<svg version="1.1" id="Capa_1" xmlns="http://www.w3.org/2000/svg" xmlns:xlink="http://www.w3.org/1999/xlink" x="0px" y="0px"
	 viewBox="0 0 512 512" style="enable-background:new 0 0 512 512;" xml:space="preserve">
<g>
	<rect x="85.333" y="8.533" style="fill:#71C285;" width="341.333" height="494.933"/>
	<circle style="fill:#4C8056;" cx="256" cy="256" r="51.2"/>
	<g>
		<path style="fill:#ECF0F1;" d="M221.867,264.533h-34.133c-4.713,0-8.533-3.821-8.533-8.533c0-4.713,3.821-8.533,8.533-8.533
			h34.133c4.713,0,8.533,3.821,8.533,8.533C230.4,260.713,226.579,264.533,221.867,264.533z"/>
		<path style="fill:#ECF0F1;" d="M128,264.533H85.333c-4.713,0-8.533-3.821-8.533-8.533c0-4.713,3.821-8.533,8.533-8.533H128
			c4.713,0,8.533,3.821,8.533,8.533C136.533,260.713,132.713,264.533,128,264.533z"/>
		<path style="fill:#ECF0F1;" d="M426.667,264.533H290.133c-4.713,0-8.533-3.821-8.533-8.533c0-4.713,3.821-8.533,8.533-8.533
			h136.533c4.713,0,8.533,3.821,8.533,8.533C435.2,260.713,431.38,264.533,426.667,264.533z"/>
		<path style="fill:#ECF0F1;" d="M256,315.733c-32.99,0-59.733-26.743-59.733-59.733S223.01,196.267,256,196.267
			S315.733,223.01,315.733,256C315.696,288.974,288.974,315.696,256,315.733z M256,213.333c-23.564,0-42.667,19.103-42.667,42.667
			c0,23.564,19.103,42.667,42.667,42.667s42.667-19.103,42.667-42.667C298.638,232.448,279.552,213.362,256,213.333z"/>
		<path style="fill:#ECF0F1;" d="M256,264.533c-0.572-0.015-1.143-0.072-1.707-0.171c-0.535-0.093-1.052-0.266-1.536-0.512
			c-0.544-0.186-1.06-0.445-1.536-0.768l-1.28-1.024l-1.024-1.28c-0.323-0.476-0.581-0.992-0.768-1.536
			c-0.247-0.484-0.419-1.001-0.512-1.536c-0.099-0.564-0.156-1.134-0.171-1.707c0.013-1.115,0.245-2.217,0.683-3.243
			c0.412-1.044,1.021-2,1.792-2.816c0.405-0.367,0.833-0.709,1.28-1.024c0.476-0.323,0.992-0.581,1.536-0.768
			c0.484-0.247,1.001-0.419,1.536-0.512c1.663-0.349,3.393-0.17,4.949,0.512c2.144,0.776,3.832,2.464,4.608,4.608
			c0.437,1.026,0.669,2.128,0.683,3.243c-0.015,0.572-0.072,1.143-0.171,1.707c-0.093,0.535-0.266,1.052-0.512,1.536
			c-0.186,0.544-0.445,1.06-0.768,1.536l-1.024,1.28c-0.816,0.771-1.772,1.38-2.816,1.792
			C258.217,264.288,257.115,264.52,256,264.533z"/>
	</g>
	<g>
   <path id="svg_33" fill="#FFFFFF" d="m145.067,350.333l-0.614,0c-2.264,-0.157 -4.372,-1.21 -5.858,-2.925c-1.486,-1.715 -2.228,-3.951 -2.061,-6.214c8.439,-118.289 56.38,-156.339 85.035,-179.072l3.473,-2.765c2.367,-2.021 5.646,-2.593 8.557,-1.493c2.911,1.1 4.993,3.698 5.432,6.779c0.439,3.081 -0.834,6.157 -3.323,8.026l-3.533,2.816c-28.16,22.349 -70.707,56.124 -78.626,166.921c-0.317,4.455 -4.016,7.912 -8.482,7.927z"/>
   <path id="svg_34" fill="#FFFFFF" d="m230.4,196.733c-4.713,0 -8.533,-3.82 -8.533,-8.533l0,-17.067l-17.067,0c-4.713,0 -8.533,-3.821 -8.533,-8.533s3.821,-8.533 8.533,-8.533l25.6,0c4.713,0 8.533,3.82 8.533,8.533l0,25.6c0,4.713 -3.82,8.533 -8.533,8.533z"/>	</g>
	<path style="fill:#F3D55B;" d="M149.333,418.133c-16.495,0-29.867-13.372-29.867-29.867c0-16.495,13.372-29.867,29.867-29.867
		c4.713,0,8.533,3.82,8.533,8.533s-3.82,8.533-8.533,8.533c-7.069,0-12.8,5.731-12.8,12.8s5.731,12.8,12.8,12.8
		s12.8-5.731,12.8-12.8c0-4.713,3.821-8.533,8.533-8.533c4.713,0,8.533,3.82,8.533,8.533
		C179.2,404.762,165.828,418.133,149.333,418.133z"/>
	<g>
		<rect x="160.529" y="11.204" style="fill:#4C8056;" width="188.757" height="54.4"/>
		<rect x="160.529" y="444.245" style="fill:#4C8056;" width="188.757" height="54.4"/>
	</g>
	<g>
		<path style="fill:#ECF0F1;" d="M349.867,512H162.133c-4.713,0-8.533-3.82-8.533-8.533V460.8c0-14.138,11.462-25.6,25.6-25.6h153.6
			c14.138,0,25.6,11.462,25.6,25.6v42.667C358.4,508.18,354.579,512,349.867,512z M170.667,494.933h170.667V460.8
			c0-4.713-3.82-8.533-8.533-8.533H179.2c-4.713,0-8.533,3.82-8.533,8.533V494.933z"/>
		<path style="fill:#ECF0F1;" d="M297.813,452.267c-4.049-0.007-7.536-2.859-8.346-6.827c-3.222-15.918-17.214-27.362-33.455-27.362
			s-30.233,11.444-33.455,27.362c-0.61,2.989-2.768,5.426-5.661,6.393c-2.894,0.967-6.083,0.316-8.367-1.707
			c-2.284-2.023-3.315-5.11-2.705-8.099c4.837-23.872,25.823-41.032,50.18-41.032s45.343,17.16,50.18,41.032
			c0.513,2.512-0.131,5.122-1.754,7.108C302.807,451.12,300.378,452.27,297.813,452.267z"/>
		<path style="fill:#ECF0F1;" d="M332.8,76.8H179.2c-14.139,0-25.6-11.462-25.6-25.6V8.533c0-4.713,3.82-8.533,8.533-8.533h187.733
			c4.713,0,8.533,3.821,8.533,8.533V51.2C358.4,65.338,346.939,76.8,332.8,76.8z M170.667,17.067V51.2
			c0,4.713,3.821,8.533,8.533,8.533h153.6c4.713,0,8.533-3.821,8.533-8.533V17.067H170.667z"/>
		<path style="fill:#ECF0F1;" d="M256,110.933c-24.356,0.068-45.367-17.083-50.176-40.96c-0.693-3.019,0.305-6.177,2.607-8.249
			s5.546-2.735,8.477-1.731c2.93,1.004,5.086,3.518,5.633,6.567c3.222,15.918,17.214,27.362,33.455,27.362
			s30.233-11.444,33.455-27.362c0.943-4.621,5.453-7.603,10.074-6.66c4.621,0.943,7.603,5.453,6.66,10.074
			C301.278,93.795,280.322,110.899,256,110.933z"/>
	</g>
	<path style="fill:#BDC3C7;" d="M426.667,512H85.333c-4.713,0-8.533-3.82-8.533-8.533V8.533C76.8,3.821,80.621,0,85.333,0h341.333
		c4.713,0,8.533,3.821,8.533,8.533v494.933C435.2,508.18,431.38,512,426.667,512z M93.867,494.933h324.267V17.067H93.867V494.933z"
		/>
	  <path fill="#F3D55B" d="m272.333,177.133c-16.495,0 -29.867,-13.372 -29.867,-29.867c0,-16.495 13.372,-29.867 29.867,-29.867c4.713,0 8.533,3.82 8.533,8.533s-3.82,8.533 -8.533,8.533c-7.069,0 -12.8,5.731 -12.8,12.8s5.731,12.8 12.8,12.8s12.8,-5.731 12.8,-12.8c0,-4.713 3.821,-8.533 8.533,-8.533c4.713,0 8.533,3.82 8.533,8.533c0.001,16.497 -13.371,29.868 -29.866,29.868z"/>
</g>
<g>
</g>
<g>
</g>
<g>
</g>
<g>
</g>
<g>
</g>
<g>
</g>
<g>
</g>
<g>
</g>
<g>
</g>
<g>
</g>
<g>
</g>
<g>
</g>
<g>
</g>
<g>
</g>
<g>
</g>
</svg>
