<?xml version="1.0" encoding="iso-8859-1"?>
<!-- Generator: Adobe Illustrator 19.0.0, SVG Export Plug-In . SVG Version: 6.00 Build 0)  -->
<svg version="1.1" id="Layer_1" xmlns="http://www.w3.org/2000/svg" xmlns:xlink="http://www.w3.org/1999/xlink" x="0px" y="0px"
	 viewBox="0 0 496.2 496.2" style="enable-background:new 0 0 496.2 496.2;" xml:space="preserve">
 <g>
  <rect fill="none" height="402" width="582" y="-1" x="-1"/>
 </g>
 <g>
  <path fill="#32BEA6" d="m0,248.10001c0,-137.00001 111.1,-248.10001 248.10001,-248.10001s248.10001,111.1 248.10001,248.10001s-111.10001,248.10001 -248.10001,248.10001s-248.10001,-111.10001 -248.10001,-248.10001z"/>
  <g transform="rotate(90 135.25 147.15)">
   <path fill="#4C4C4C" d="m143.5,118.89999l-16.5,0c-1.3,0 -2.39999,1.10001 -2.39999,2.39999l0,62.40002c0,1.29999 1.09999,2.39999 2.39999,2.39999l16.5,0c1.3,0 2.39999,-1.10001 2.39999,-2.39999l0,-62.40002c0,-1.29999 -1,-2.39999 -2.39999,-2.39999z"/>
   <rect fill="#4C4C4C" height="24.5" width="16.5" y="105.7" x="126.8"/>
   <path fill="#4C4C4C" d="m144.3,180.29999l-18.10001,0c-1.39999,0 -2.59999,1.20001 -2.59999,2.60001l0,3.10001c0,1.39999 1.2,2.59998 2.59999,2.59998l18.10001,0c1.39999,0 2.59999,-1.19998 2.59999,-2.59998l0,-3.10001c0,-1.39999 -1.09999,-2.60001 -2.59999,-2.60001z"/>
  </g>
  <rect transform="rotate(90 267.1 307.9)" fill="#EA4949" height="183.4" width="126.4" y="216.2" x="203.9"/>
  <g transform="rotate(90 267.25 255.9)">
   <rect fill="#EFE020" height="91.1" width="128" y="256.5" x="254.2"/>
   <rect fill="#EFE020" height="92.8" width="103.7" y="164.2" x="152.3"/>
  </g>
  <rect transform="rotate(90 221.15 192.05)" fill="#EA4949" height="91.1" width="103.7" y="146.5" x="169.3"/>
  <rect transform="rotate(90 268.25 146.9)" fill="#E5D11A" height="183.4" width="19.1" y="55.2" x="258.7"/>
  <rect transform="rotate(90 221.25 147.05)" fill="#E21B1B" height="91.1" width="19.1" y="101.5" x="211.7"/>
  <g/>
  <g/>
  <g/>
  <g/>
  <g/>
  <g/>
  <g/>
  <g/>
  <g/>
  <g/>
  <g/>
  <g/>
  <g/>
  <g/>
  <g/>
 </g>
</svg>