<?xml version="1.0" encoding="iso-8859-1"?>
<!-- Generator: Adobe Illustrator 19.0.0, SVG Export Plug-In . SVG Version: 6.00 Build 0)  -->
<svg version="1.1" id="Capa_1" xmlns="http://www.w3.org/2000/svg" xmlns:xlink="http://www.w3.org/1999/xlink" x="0px" y="0px"
	 viewBox="0 0 512 512" style="enable-background:new 0 0 512 512;" xml:space="preserve">
<circle style="fill:#64E1DC;" cx="256" cy="256" r="256"/>
<path style="fill:#DE4726;" d="M400.106,194.023c0-45.829-37.152-82.981-82.981-82.981c-37.952,0-69.93,25.488-79.81,60.274
	c-9.88-34.785-41.857-60.274-79.81-60.274c-45.829,0-82.981,37.152-82.981,82.981c0,93.471,162.791,190.033,162.791,190.033
	S400.106,281.151,400.106,194.023z"/>
<circle style="fill:#FFFFFF;" cx="340.57" cy="285.09" r="103.37"/>
<polygon style="fill:#414952;" points="340.573,242.51 300.658,271.51 315.904,318.433 365.242,318.433 380.489,271.51 "/>
<path style="fill:#414952;" d="M303.044,188.752l37.53,27.267l37.53-27.267c-11.634-4.536-24.29-7.028-37.53-7.028
	S314.678,184.216,303.044,188.752z"/>
<g>
	<path style="fill:#414952;" d="M378.103,188.752c-11.634-4.535-24.29-7.028-37.53-7.028c-0.16,0-0.318,0.005-0.478,0.006v33.942
		l0.478,0.347L378.103,188.752z"/>
	<path style="fill:#414952;" d="M405.906,262.942l37.897,27.534c0.092-1.783,0.139-3.578,0.139-5.384
		c0-25.083-8.936-48.077-23.795-65.978L405.906,262.942z"/>
	<path style="fill:#414952;" d="M366.786,385.104c25.501-6.665,47.163-22.824,60.983-44.475h-46.532L366.786,385.104z"/>
</g>
<g>
	<path style="fill:#414952;" d="M261,219.114c-14.859,17.901-23.795,40.895-23.795,65.978c0,1.806,0.047,3.601,0.139,5.384
		l37.897-27.534L261,219.114z"/>
	<path style="fill:#414952;" d="M299.91,340.629h-46.532c13.819,21.652,35.481,37.81,60.983,44.475L299.91,340.629z"/>
</g>
<g>
</g>
<g>
</g>
<g>
</g>
<g>
</g>
<g>
</g>
<g>
</g>
<g>
</g>
<g>
</g>
<g>
</g>
<g>
</g>
<g>
</g>
<g>
</g>
<g>
</g>
<g>
</g>
<g>
</g>
</svg>
