<?xml version="1.0" encoding="iso-8859-1"?>
<!-- Generator: Adobe Illustrator 19.0.0, SVG Export Plug-In . SVG Version: 6.00 Build 0)  -->
<svg version="1.1" id="Capa_1" xmlns="http://www.w3.org/2000/svg" xmlns:xlink="http://www.w3.org/1999/xlink" x="0px" y="0px"
	 viewBox="0 0 512 512" style="enable-background:new 0 0 512 512;" xml:space="preserve">
<circle style="fill:#FFE733;" cx="256" cy="256" r="256"/>
<path style="fill:#F2D813;" d="M512,256c0-0.376-0.013-0.749-0.014-1.124L447,189.89l-304.462,26.179l-31.3,53.144l115.319,115.318
	l-84.019,41.694l84.087,84.087C236.266,511.414,246.064,512,256,512C397.385,512,512,397.385,512,256z"/>
<polygon style="fill:#3F6199;" points="142.538,113.775 65,189.89 111.238,269.212 142.829,239.416 "/>
<polygon style="fill:#355382;" points="369.462,113.775 447,189.89 400.762,269.212 369.171,239.416 "/>
<rect x="142.54" y="113.78" style="fill:#3D7ED9;" width="226.92" height="312.45"/>
<rect x="256" y="113.77" style="fill:#466EB2;" width="113.46" height="312.45"/>
<polygon style="fill:#FFFFFF;" points="346.258,306.326 256,216.069 165.742,306.326 193.32,333.903 236.5,290.723 236.5,452.766 
	275.5,452.766 275.5,290.723 318.68,333.903 "/>
<polygon style="fill:#F0F0F0;" points="255.571,452.766 275.5,452.766 275.5,290.723 318.68,333.903 346.258,306.326 256,216.069 
	"/>
<path style="fill:#3F6199;" d="M305.084,113.775c0,27.108-21.976,49.084-49.084,49.084s-49.084-21.976-49.084-49.084
	C206.916,113.775,305.084,113.775,305.084,113.775z"/>
<path style="fill:#355382;" d="M256,113.774v49.073c-0.285,0.001-0.144,0.011,0,0.011c27.108,0,49.084-21.976,49.084-49.084H256z"/>
<g>
</g>
<g>
</g>
<g>
</g>
<g>
</g>
<g>
</g>
<g>
</g>
<g>
</g>
<g>
</g>
<g>
</g>
<g>
</g>
<g>
</g>
<g>
</g>
<g>
</g>
<g>
</g>
<g>
</g>
</svg>
