<?xml version="1.0" encoding="iso-8859-1"?>
<!-- Generator: Adobe Illustrator 19.0.0, SVG Export Plug-In . SVG Version: 6.00 Build 0)  -->
<svg version="1.1" id="Layer_1" xmlns="http://www.w3.org/2000/svg" xmlns:xlink="http://www.w3.org/1999/xlink" x="0px" y="0px"
	 viewBox="0 0 512 512" style="enable-background:new 0 0 512 512;" xml:space="preserve">
 <g>
  <title>Layer 1</title>
  <g>
   <rect fill="none" id="canvas_background" height="514" width="514" y="-1" x="-1"/>
  </g>
  <g>
   <circle fill="#64E1DC" r="256" cy="256" cx="256"/>
   <path fill="#93D632" d="m9.418,325c30.122,107.866 129.106,187 246.582,187s216.46002,-79.134 246.582,-187l-493.164,0z"/>
   <circle stroke="null" fill="#FFFFFF" r="42.85" cy="429.24" cx="256"/>
   <polygon stroke="null" fill="#414952" points="256 414.462 239.964 425.84 246.089 444.25 265.911 444.25 272.036 425.84"/>
   <path stroke="null" fill="#414952" d="m240.46899,389.42691l15.53101,11.77811l15.53101,-11.77811c-4.81479,-1.95935 -10.05225,-3.03592 -15.53101,-3.03592s-10.71619,1.07712 -15.53101,3.03592z"/>
   <g stroke="null">
    <path stroke="null" fill="#414952" d="m272.20978,389.32404c-4.84689,-1.89294 -10.11926,-2.93304 -15.63455,-2.93304c-0.07141,0 -0.1413,0.00449 -0.21271,0.00497l0,14.15204l0.21271,0.15448l15.63455,-11.37845z"/>
    <path stroke="null" fill="#414952" d="m283.79224,420.28497l15.78775,11.4902c0.03818,-0.74405 0.05753,-1.49307 0.05753,-2.24707c0,-10.4675 -3.72281,-20.06281 -9.91296,-27.5332l-5.93231,18.29007z"/>
    <path stroke="null" fill="#414952" d="m267.49524,471.26401c10.62354,-2.78152 19.64795,-9.52475 25.40469,-18.56027l-19.38461,0l-6.02008,18.56027z"/>
   </g>
   <g stroke="null">
    <path stroke="null" fill="#414952" d="m222.09425,401.806c-5.93619,7.383 -9.50627,16.86649 -9.50627,27.21103c0,0.74466 0.01904,1.48492 0.05518,2.22076l15.14001,-11.35574l-5.68892,-18.07605z"/>
    <path stroke="null" fill="#414952" d="m237.63892,451.92194l-18.58931,0c5.5206,8.92978 14.17473,15.5936 24.36238,18.34308l-5.77307,-18.34308z"/>
   </g>
   <polygon fill="#FFFFFF" points="412.5,364.366 378.5,364.366 378.5,180.634 133.5,180.634 133.5,364.366 99.5,364.366  99.5,146.634 412.5,146.634 "/>
   <rect x="155.948" y="282.189" transform="matrix(-0.7071 -0.7071 0.7071 -0.7071 291.6801 720.1935)" width="278.097" height="34.999" fill="#D4EEFF"/>
   <rect x="292.848" y="154.29" transform="matrix(-0.7071 0.7071 -0.7071 -0.7071 721.8557 287.6758)" width="17" height="278.097" fill="#C2E5FF"/>
   <rect x="169.962" y="205.512" transform="matrix(-0.7071 -0.7071 0.7071 -0.7071 369.8221 599.2073)" width="278.097" height="34.999" fill="#C2E5FF"/>
   <rect x="78.482" y="292.683" transform="matrix(-0.7071 -0.7071 0.7071 -0.7071 152.0156 683.3318)" width="278.097" height="34.999" fill="#D4EEFF"/>
   <g/>
   <g/>
   <g/>
   <g/>
   <g/>
   <g/>
   <g/>
   <g/>
   <g/>
   <g/>
   <g/>
   <g/>
   <g/>
   <g/>
   <g/>
  </g>
  <g>
   <rect fill="none" height="514" width="514" y="-1" x="-1"/>
  </g>
  <circle fill="#64E1DC" r="256" cy="256" cx="256" id="svg_33"/>
  <path fill="#93D632" d="m9.418,325c30.122,107.866 129.106,187 246.582,187s216.46002,-79.134 246.582,-187l-493.164,0z"/>
  <rect x="126.07475" y="499.20719" transform="matrix(-0.302498 -0.283569 0.302498 -0.283569 134.426 514.889)" width="278.097" height="34.999" fill="#D4EEFF"/>
  <rect x="128.61462" y="630.67353" transform="matrix(-0.302498 -0.283569 0.302498 -0.283569 134.426 514.889)" width="278.097" height="34.999" fill="#D4EEFF"/>
  <rect x="70.31739" y="569.07049" transform="matrix(-0.302498 -0.283569 0.302498 -0.283569 134.426 514.889)" width="278.097" height="34.999" fill="#D4EEFF"/>
  <circle stroke="null" fill="#FFFFFF" r="42.85" cy="230.24" cx="182"/>
  <polygon stroke="null" fill="#414952" points="182 215.462 165.964 226.84 172.089 245.25 191.911 245.25 198.036 226.84"/>
  <path stroke="null" fill="#414952" d="m166.46899,190.427l15.53101,11.778l15.53101,-11.778c-4.815,-1.959 -10.052,-3.036 -15.53101,-3.036s-10.716,1.077 -15.53101,3.036z"/>
  <g stroke="null">
   <path stroke="null" fill="#414952" d="m198.21001,190.32401c-4.847,-1.89301 -10.119,-2.933 -15.63501,-2.933c-0.071,0 -0.14099,0.004 -0.21199,0.00499l0,14.15201l0.21199,0.15399l15.63501,-11.37799z"/>
   <path stroke="null" fill="#414952" d="m209.79201,221.285l15.78799,11.48999c0.03799,-0.74399 0.058,-1.493 0.058,-2.24699c0,-10.467 -3.72301,-20.063 -9.91299,-27.533l-5.933,18.29001z"/>
   <path stroke="null" fill="#414952" d="m193.495,272.26401c10.62401,-2.78201 19.64801,-9.52499 25.405,-18.56001l-19.38499,0l-6.02,18.56001z"/>
  </g>
  <g stroke="null">
   <path stroke="null" fill="#414952" d="m148.09399,202.806c-5.93599,7.383 -9.506,16.866 -9.506,27.211c0,0.745 0.019,1.485 0.05501,2.22101l15.14,-11.356l-5.68901,-18.076z"/>
   <path stroke="null" fill="#414952" d="m163.63901,252.922l-18.589,0c5.52,8.92999 14.174,15.59399 24.362,18.34302l-5.77299,-18.34302z"/>
  </g>
  <polygon fill="#FFFFFF" points="412.5 364.366 378.5 364.366 378.5 180.634 133.5 180.634 133.5 364.366 99.5 364.366 99.5 146.634 412.5 146.634"/>
  <g>
   <path fill="#324A5E" d="m126.4,121.6c-6.8,-6.8 -10.8,-16 -10.8,-26c0,-9.6 3.6,-18.8 10.8,-26c6.8,-7.2 16,-10.8 26,-10.8c9.6,0 18.8,3.6 26,10.8c3.2,3.2 1.2,7.2 0,8.4s-4.8,4.4 -8.4,0c-4.8,-4.8 -10.8,-7.2 -17.2,-7.2c-6.8,0 -12.8,2.4 -17.2,7.2c-4.8,4.8 -7.2,10.8 -7.2,17.2s2.8,12.8 7.2,17.2c4.8,4.8 11.2,7.2 17.2,7.2c5.6,0 10.8,-2 15.6,-5.6l0,-12l-15.2,0c-3.2,0 -6,-2.8 -6,-6s2.8,-6 6,-6l20.8,0c3.2,0 6,2.8 6,6l0,21.6c0,1.6 -0.8,3.2 -1.6,4.4c-7.2,7.2 -16.4,10.8 -26,10.8c-9.6,-0.4 -18.8,-4 -26,-11.2z"/>
   <path fill="#324A5E" d="m198.8,96c0,-20.4 15.6,-36.8 35.2,-36.8c19.2,0 35.2,16.4 35.2,36.8s-16,36.8 -35.2,36.8c-19.6,-0.4 -35.2,-16.8 -35.2,-36.8zm12.4,0c0,13.6 10.4,24.4 22.8,24.4c12.8,0 22.8,-10.8 22.8,-24.4c0,-13.6 -10.4,-24.4 -22.8,-24.4c-12.8,-0.4 -22.8,10.8 -22.8,24.4z"/>
   <path fill="#324A5E" d="m341.2,124c0.4,0.8 0.4,1.6 0.4,2.4c0,3.2 -2.4,6 -6,6c-2.4,0 -4.8,-1.6 -5.6,-4l-4.8,-11.6l-28.4,0l-4.8,11.6c-0.8,2.4 -3.2,4 -5.6,4c-3.6,0 -6,-3.2 -6,-6c0,-0.8 0,-1.6 0.4,-2.4l24.4,-61.2c0.8,-2.4 3.2,-4 5.6,-4s4.8,1.6 5.6,4l24.8,61.2zm-20.8,-18.8l-9.2,-23.2l-9.2,23.2l18.4,0z"/>
   <path fill="#324A5E" d="m366.8,132.4c-3.6,0 -6,-2.8 -6,-6l0,-61.2c0,-3.2 2.8,-6 6,-6s6,2.8 6,6l0,55.2l21.2,0c3.2,0 6,2.8 6,6s-2.8,6 -6,6l-27.2,0z"/>
  </g>
	 <g/>
  <g/>
  <g/>
  <g/>
  <g/>
  <g/>
  <g/>
  <g/>
  <g/>
  <g/>
  <g/>
  <g/>
  <g/>
  <g/>
  <g/>
 </g>
</svg>