<?xml version="1.0" encoding="iso-8859-1"?>
<!-- Generator: Adobe Illustrator 19.0.0, SVG Export Plug-In . SVG Version: 6.00 Build 0)  -->
<svg version="1.1" id="Layer_1" xmlns="http://www.w3.org/2000/svg" xmlns:xlink="http://www.w3.org/1999/xlink" x="0px" y="0px"
	 viewBox="0 0 512 512" style="enable-background:new 0 0 512 512;" xml:space="preserve">
<g>
<rect fill="none" id="canvas_background" height="402" width="582" y="-1" x="-1"/>
</g>
<g>
<circle fill="#64E1DC" r="256" cy="256" cx="256"/>
<path fill="#93D632" d="m9.418,325c30.122001,107.865997 129.106002,187 246.582,187s216.460022,-79.134003 246.582001,-187l-493.164001,0z"/>
<circle stroke="null" id="svg_3" fill="#FFFFFF" r="42.849998" cy="429.24" cx="256"/>
<polygon stroke="null" id="svg_4" fill="#414952" points="256 414.462 239.964 425.84 246.089 444.25 265.911 444.25 272.036 425.84"/>
<path stroke="null" id="svg_6" fill="#414952" d="m240.468994,389.42691l15.531006,11.778107l15.531006,-11.778107c-4.814789,-1.959351 -10.052246,-3.035919 -15.531006,-3.035919s-10.716187,1.077118 -15.531006,3.035919z"/>
<g stroke="null" id="svg_7">
<path stroke="null" id="svg_8" fill="#414952" d="m272.209778,389.324036c-4.846893,-1.892944 -10.119263,-2.933044 -15.634552,-2.933044c-0.071411,0 -0.141296,0.004486 -0.212708,0.004974l0,14.152039l0.212708,0.15448l15.634552,-11.378448z"/>
<path stroke="null" id="svg_9" fill="#414952" d="m283.792236,420.284973l15.78775,11.490204c0.038177,-0.744049 0.057526,-1.493073 0.057526,-2.24707c0,-10.467499 -3.722809,-20.062805 -9.912964,-27.533203l-5.932312,18.29007z"/>
<path stroke="null" id="svg_10" fill="#414952" d="m267.495239,471.264008c10.623535,-2.781525 19.647949,-9.52475 25.404694,-18.560272l-19.384613,0l-6.020081,18.560272z"/>
</g>
<g stroke="null" id="svg_11">
<path stroke="null" id="svg_12" fill="#414952" d="m222.094254,401.806c-5.936188,7.382996 -9.506271,16.866486 -9.506271,27.211029c0,0.744659 0.019043,1.484924 0.055176,2.220764l15.140015,-11.355743l-5.688919,-18.07605z"/>
<path stroke="null" id="svg_13" fill="#414952" d="m237.638916,451.921936l-18.58931,0c5.520599,8.929779 14.174728,15.593597 24.362381,18.343079l-5.773071,-18.343079z"/>
</g>
<polygon fill="#FFFFFF" points="412.5,364.366 378.5,364.366 378.5,180.634 133.5,180.634 133.5,364.366 99.5,364.366  99.5,146.634 412.5,146.634 "/>
<g/>
<g/>
<g/>
<g/>
<g/>
<g/>
<g/>
<g/>
<g/>
<g/>
<g/>
<g/>
<g/>
<g/>
<g/>
</g>
</svg>