<?xml version="1.0" encoding="iso-8859-1"?>
<!-- Generator: Adobe Illustrator 19.0.0, SVG Export Plug-In . SVG Version: 6.00 Build 0)  -->
<svg version="1.1" id="Layer_1" xmlns="http://www.w3.org/2000/svg" xmlns:xlink="http://www.w3.org/1999/xlink" x="0px" y="0px"
	 viewBox="0 0 496.2 496.2" style="enable-background:new 0 0 496.2 496.2;" xml:space="preserve">
<path style="fill:#FABC3D;" d="M0,248.1C0,111.1,111.1,0,248.1,0s248.1,111.1,248.1,248.1S385.1,496.2,248.1,496.2S0,385.1,0,248.1z
	"/>
<path style="fill:#3D3C3C;" d="M385.6,183.9c-8-8.3-18-11.6-26.3-3.6L277,259.4c1.1,1.2,40.4,37.9,40.4,37.9l70.7-86.9
	C396.4,202.4,393.5,192.2,385.6,183.9z"/>
<g>
	<polygon style="fill:#333333;" points="329.8,282.1 331.7,279.7 331.7,279.6 329.7,282.1 	"/>
	<path style="fill:#333333;" d="M349.8,229.8l0.5,26.7h0.1l1.9-2.4l-0.5-26.9l18.7-23l0.5,26.7h0.1l1.9-2.4l-0.5-26.9l13.7-16.9
		c-0.3-0.3-0.5-0.6-0.8-0.9c-0.2-0.2-0.4-0.5-0.7-0.7l-55.6,69l0.6,30h0.1l2-2.4l-0.5-26.8L349.8,229.8z"/>
</g>
<path style="fill:#3D3C3C;" d="M324,208.2l0.1-2.4c0-0.3,0-0.5-0.1-0.8v-99.7c0-10.7-8.7-15.3-19.4-15.3c-10.7,0-19.4,4.6-19.4,15.3
	v-18c0-10.7-8.7-15.3-19.4-15.3s-19.4,4.6-19.4,15.3V99c0-10.7-8.7-15.3-19.4-15.3s-19.4,4.6-19.4,15.3v21.8
	c0-10.7-8.7-15.3-19.4-15.3s-19.4,4.6-19.4,15.3V202c0,0.9,0,3.5,0,3.9l5.3,110.6c0,19,9,28.9,20.1,28.9h105.1
	c11.1,0,20.1-9.9,20.1-28.9l3-76.4C323.6,237.8,324,208.2,324,208.2z"/>
<rect x="182.9" y="340.8" style="fill:#2B2B2B;" width="128.8" height="77.5"/>
<g>
	<path style="fill:#232323;" d="M255.6,355.3c0-2.9-2.4-5.3-5.3-5.3h-67.4v10.6h67.4C253.2,360.6,255.6,358.2,255.6,355.3z"/>
	<path style="fill:#232323;" d="M272,380.6c0-2.9-2.4-5.3-5.3-5.3h-83.9v10.6h83.9C269.7,385.9,272,383.5,272,380.6z"/>
	<path style="fill:#232323;" d="M288.5,405.9c0-2.9-2.4-5.3-5.3-5.3H182.9v10.6h100.3C286.1,411.2,288.5,408.8,288.5,405.9z"/>
</g>
<g>
	<polygon style="fill:#333333;" points="207.8,120 209.3,203.9 206.3,203.9 	"/>
	<polygon style="fill:#333333;" points="246.6,98.7 248.1,202.6 245.1,202.6 	"/>
	<polygon style="fill:#333333;" points="285.3,105.2 286.8,202.6 283.8,202.6 	"/>
	<path style="fill:#333333;" d="M188.5,192.2v-86.9h-0.1c-0.7,0-1.4,0-2,0.1v20.2l-17.3,20.6v3.1l0.1,0.1l17.2-20.4v29.6l-17.3,20.5
		v3.1l0.1,0.1l17.2-20.4v29.6l-5.1,6.1c1.1-0.3,2.3-0.6,3.6-0.9L188.5,192.2z"/>
	<path style="fill:#333333;" d="M184.9,196.6c-1.2,0.3-2.4,0.6-3.6,0.9l-10.4,12.4l-1.5,1.8l0.1,3.1l2.4-2.9L184.9,196.6z"/>
	<path style="fill:#333333;" d="M306.7,149.8l17.2,20.4l0.1-0.1v-3l-17.3-20.5V117l17.2,20.4l0.1-0.1v-3.1l-17.3-20.5V90
		c-0.7,0-1.3-0.1-2-0.1h-0.1v90.2L324,203l0.1-0.1v-3.1l-17.3-20.5v-29.5H306.7z"/>
	
		<rect x="223.725" y="90.671" transform="matrix(-0.7714 -0.6363 0.6363 -0.7714 329.7747 336.5005)" style="fill:#333333;" width="3.2" height="36.699"/>
	
		<rect x="223.696" y="107.159" transform="matrix(-0.7714 -0.6363 0.6363 -0.7714 319.2317 365.6895)" style="fill:#333333;" width="3.2" height="36.699"/>
	
		<rect x="223.731" y="123.57" transform="matrix(-0.7714 -0.6363 0.6363 -0.7714 308.8505 394.7823)" style="fill:#333333;" width="3.2" height="36.699"/>
	
		<rect x="223.692" y="140.058" transform="matrix(-0.7714 -0.6363 0.6363 -0.7714 298.2898 423.965)" style="fill:#333333;" width="3.2" height="36.699"/>
	
		<rect x="223.738" y="156.474" transform="matrix(-0.7715 -0.6362 0.6362 -0.7715 287.9652 453.0652)" style="fill:#333333;" width="3.2" height="36.699"/>
	
		<rect x="264.615" y="90.696" transform="matrix(-0.7714 -0.6363 0.6363 -0.7714 402.193 362.5635)" style="fill:#333333;" width="3.2" height="36.699"/>
	
		<rect x="264.581" y="74.285" transform="matrix(-0.7714 -0.6363 0.6363 -0.7714 412.5742 333.4706)" style="fill:#333333;" width="3.2" height="36.699"/>
	
		<rect x="264.587" y="107.184" transform="matrix(-0.7714 -0.6363 0.6363 -0.7714 391.65 391.7525)" style="fill:#333333;" width="3.2" height="36.699"/>
	
		<rect x="264.621" y="123.595" transform="matrix(-0.7714 -0.6363 0.6363 -0.7714 381.2688 420.8453)" style="fill:#333333;" width="3.2" height="36.699"/>
	
		<rect x="264.582" y="140.083" transform="matrix(-0.7714 -0.6363 0.6363 -0.7714 370.7081 450.028)" style="fill:#333333;" width="3.2" height="36.699"/>
	
		<rect x="264.623" y="156.504" transform="matrix(-0.7715 -0.6362 0.6362 -0.7715 360.373 479.1304)" style="fill:#333333;" width="3.2" height="36.699"/>
	<path style="fill:#333333;" d="M288,222.8h-83.5c-1.5,0-2.7-1.2-2.7-2.7s1.2-2.7,2.7-2.7H288c1.5,0,2.7,1.2,2.7,2.7
		C290.6,221.6,289.4,222.8,288,222.8z"/>
	<path style="fill:#333333;" d="M294.3,239.3h-96.2c-1.5,0-2.7-1.2-2.7-2.7s1.2-2.7,2.7-2.7h96.2c1.5,0,2.7,1.2,2.7,2.7
		S295.8,239.3,294.3,239.3z"/>
	<path style="fill:#333333;" d="M288,255.7h-83.5c-1.5,0-2.7-1.2-2.7-2.7s1.2-2.7,2.7-2.7H288c1.5,0,2.7,1.2,2.7,2.7
		C290.6,254.5,289.4,255.7,288,255.7z"/>
</g>
<g>
</g>
<g>
</g>
<g>
</g>
<g>
</g>
<g>
</g>
<g>
</g>
<g>
</g>
<g>
</g>
<g>
</g>
<g>
</g>
<g>
</g>
<g>
</g>
<g>
</g>
<g>
</g>
<g>
</g>
</svg>
