<?xml version="1.0" encoding="iso-8859-1"?>
<!-- Generator: Adobe Illustrator 19.0.0, SVG Export Plug-In . SVG Version: 6.00 Build 0)  -->
<svg version="1.1" id="Layer_1" xmlns="http://www.w3.org/2000/svg" xmlns:xlink="http://www.w3.org/1999/xlink" x="0px" y="0px"
	 viewBox="0 0 512 512" style="enable-background:new 0 0 512 512;" xml:space="preserve">
 <g>
  <title>Layer 1</title>
  <g id="svg_1">
   <rect x="-1" y="-1" width="514" height="514" id="canvas_background" fill="none"/>
  </g>
  <g id="svg_2">
   <circle id="svg_3" cx="256" cy="256" r="256" fill="#64E1DC"/>
   <path id="svg_4" d="m9.418,325c30.122,107.866 129.106,187 246.582,187s216.46002,-79.134 246.582,-187l-493.164,0z" fill="#93D632"/>
   <circle id="svg_5" cx="256" cy="429.24" r="42.85" fill="#FFFFFF" stroke="null"/>
   <polygon id="svg_6" points="256 414.462 239.964 425.84 246.089 444.25 265.911 444.25 272.036 425.84" fill="#414952" stroke="null"/>
   <path id="svg_7" d="m240.46899,389.42691l15.53101,11.77811l15.53101,-11.77811c-4.81479,-1.95935 -10.05225,-3.03592 -15.53101,-3.03592s-10.71619,1.07712 -15.53101,3.03592z" fill="#414952" stroke="null"/>
   <g id="svg_8" stroke="null">
    <path id="svg_9" d="m272.20978,389.32404c-4.84689,-1.89294 -10.11926,-2.93304 -15.63455,-2.93304c-0.07141,0 -0.1413,0.00449 -0.21271,0.00497l0,14.15204l0.21271,0.15448l15.63455,-11.37845z" fill="#414952" stroke="null"/>
    <path id="svg_10" d="m283.79224,420.28497l15.78775,11.4902c0.03818,-0.74405 0.05753,-1.49307 0.05753,-2.24707c0,-10.4675 -3.72281,-20.06281 -9.91296,-27.5332l-5.93231,18.29007l-0.00001,0z" fill="#414952" stroke="null"/>
    <path id="svg_11" d="m267.49524,471.26401c10.62354,-2.78152 19.64795,-9.52475 25.40469,-18.56027l-19.38461,0l-6.02008,18.56027z" fill="#414952" stroke="null"/>
   </g>
   <g id="svg_12" stroke="null">
    <path id="svg_13" d="m222.09425,401.806c-5.93619,7.383 -9.50627,16.86649 -9.50627,27.21103c0,0.74466 0.01904,1.48492 0.05518,2.22076l15.14001,-11.35574l-5.68892,-18.07605z" fill="#414952" stroke="null"/>
    <path id="svg_14" d="m237.63892,451.92194l-18.58931,0c5.5206,8.92978 14.17473,15.5936 24.36238,18.34308l-5.77307,-18.34308z" fill="#414952" stroke="null"/>
   </g>
   <polygon id="svg_15" points="412.5,364.366 378.5,364.366 378.5,180.634 133.5,180.634 133.5,364.366 99.5,364.366  99.5,146.634 412.5,146.634 " fill="#FFFFFF"/>
   <rect id="svg_16" fill="#D4EEFF" height="34.999" width="278.097" transform="matrix(-0.7071,-0.7071,0.7071,-0.7071,291.6801,720.1935) " y="282.189" x="155.948"/>
   <rect id="svg_17" fill="#C2E5FF" height="278.097" width="17" transform="matrix(-0.7071,0.7071,-0.7071,-0.7071,721.8557,287.6758) " y="154.29" x="292.848"/>
   <rect id="svg_18" fill="#C2E5FF" height="34.999" width="278.097" transform="matrix(-0.7071,-0.7071,0.7071,-0.7071,369.8221,599.2073) " y="205.512" x="169.962"/>
   <rect id="svg_19" fill="#D4EEFF" height="34.999" width="278.097" transform="matrix(-0.7071,-0.7071,0.7071,-0.7071,152.0156,683.3318) " y="292.683" x="78.482"/>
   <g id="svg_20"/>
   <g id="svg_21"/>
   <g id="svg_22"/>
   <g id="svg_23"/>
   <g id="svg_24"/>
   <g id="svg_25"/>
   <g id="svg_26"/>
   <g id="svg_27"/>
   <g id="svg_28"/>
   <g id="svg_29"/>
   <g id="svg_30"/>
   <g id="svg_31"/>
   <g id="svg_32"/>
   <g id="svg_34"/>
   <g id="svg_35"/>
  </g>
  <g id="svg_36">
   <rect id="svg_37" x="-1" y="-1" width="514" height="514" fill="none"/>
  </g>
  <circle id="svg_33" cx="256" cy="256" r="256" fill="#64E1DC"/>
  <path id="svg_38" d="m9.418,325c30.122,107.866 129.106,187 246.582,187s216.46002,-79.134 246.582,-187l-493.164,0z" fill="#93D632"/>
  <circle id="svg_42" cx="253" cy="155.24" r="42.85" fill="#FFFFFF" stroke="null"/>
  <polygon id="svg_52" points="412.5 364.366 378.5 364.366 378.5 180.634 133.5 180.634 133.5 364.366 99.5 364.366 99.5 146.634 412.5 146.634" fill="#FFFFFF"/>
  <polygon stroke="null" id="svg_43" points="253,140.46200561523438 236.96400451660156,151.83999633789062 243.08900451660156,170.25 262.9110107421875,170.25 269.0359802246094,151.83999633789062 " fill="#414952"/>
  <path id="svg_44" d="m237.46899,115.427l15.53101,11.778l15.53101,-11.778c-4.815,-1.959 -10.052,-3.036 -15.53101,-3.036s-10.716,1.077 -15.53101,3.036z" fill="#414952" stroke="null"/>
  <g id="svg_45" stroke="null">
   <path id="svg_46" d="m269.21001,115.32401c-4.847,-1.89301 -10.119,-2.933 -15.63501,-2.933c-0.071,0 -0.14099,0.004 -0.21199,0.00499l0,14.15201l0.21199,0.15399l15.63501,-11.37799z" fill="#414952" stroke="null"/>
   <path id="svg_47" d="m280.79201,146.285l15.78799,11.48999c0.03799,-0.74399 0.058,-1.493 0.058,-2.24699c0,-10.467 -3.72301,-20.063 -9.91299,-27.533l-5.933,18.29001l0,-0.00001z" fill="#414952" stroke="null"/>
   <path id="svg_48" d="m264.495,197.26401c10.62401,-2.78201 19.64801,-9.52499 25.405,-18.56001l-19.38499,0l-6.02,18.56001l-0.00001,0z" fill="#414952" stroke="null"/>
  </g>
  <g id="svg_49" stroke="null">
   <path id="svg_50" d="m219.09399,127.806c-5.93599,7.383 -9.506,16.866 -9.506,27.211c0,0.745 0.019,1.485 0.05501,2.22101l15.14,-11.356l-5.68901,-18.076l0,-0.00001z" fill="#414952" stroke="null"/>
   <path id="svg_51" d="m234.63901,177.922l-18.589,0c5.52,8.92999 14.174,15.59399 24.362,18.34302l-5.77299,-18.34302l-0.00001,0z" fill="#414952" stroke="null"/>
  </g>
  <g id="svg_53"/>
  <g id="svg_54"/>
  <g id="svg_55"/>
  <g id="svg_56"/>
  <g id="svg_57"/>
  <g id="svg_58"/>
  <g id="svg_59"/>
  <g id="svg_60"/>
  <g id="svg_61"/>
  <g id="svg_62"/>
  <g id="svg_63"/>
  <g id="svg_64"/>
  <g id="svg_65"/>
  <g id="svg_66"/>
  <g id="svg_67"/>
 </g>

</svg>