<?xml version="1.0" encoding="iso-8859-1"?>
<!-- Generator: Adobe Illustrator 19.0.0, SVG Export Plug-In . SVG Version: 6.00 Build 0)  -->
<svg version="1.1" id="Capa_1" xmlns="http://www.w3.org/2000/svg" xmlns:xlink="http://www.w3.org/1999/xlink" x="0px" y="0px"
	 viewBox="0 0 512 512" style="enable-background:new 0 0 512 512;" xml:space="preserve">
<circle style="fill:#FF9500;" cx="256" cy="256" r="256"/>

<polygon style="fill:#A10000;" points="131.231,86.055 77.726,138.579 109.633,193.315 131.432,172.755 "/>
<polygon style="fill:#82090B;" points="287.821,86.055 341.327,138.579 309.42,193.315 287.621,172.755 "/>
<rect x="131.23" y="85" style="fill:#E9EDF5;" width="156.59" height="215.61"/>
<path style="fill:#6B0F03;" d="M243.397,86.055c0,18.706-15.164,33.871-33.871,33.871s-33.871-15.164-33.871-33.871
	C175.655,86.055,243.397,86.055,243.397,86.055z"/>
<polygon style="fill:#A10000;" points="236.179,196.314 182.673,248.838 214.58,303.575 236.379,283.014 "/>
<polygon style="fill:#A10000;" points="392.769,196.314 446.274,248.838 414.367,303.575 392.568,283.014 "/>
<rect x="236.18" y="196.31" style="fill:#FFFFFF;" width="156.59" height="215.61"/>
<path style="fill:#6B0F03;" d="M348.344,196.314c0,18.706-15.164,33.871-33.871,33.871s-33.871-15.164-33.871-33.871H348.344z"/>
<g>
	<polygon style="fill:#495959;" points="343.376,296.955 331.376,296.955 331.376,264.316 328.176,267.694 319.465,259.439
		333.021,245.134 343.376,249.261 	"/>
	<path style="fill:#495959;" d="M374.105,296.955h-18.762l-6-6v-39.508l6-6h18.762l6,6v39.508L374.105,296.955z M361.344,284.955
		h6.762v-27.508h-6.762V284.955z"/>
</g>
<polygon style="fill:#27488F;" points="287.234,348.206 192.128,348.206 215.365,324.969 195.566,305.17 138.53,362.206 
	195.566,419.242 215.365,399.443 192.128,376.206 287.234,376.206 "/>
<polygon style="fill:#27488F;" points="368.602,78.178 348.803,97.977 372.039,121.214 276.934,121.214 276.934,149.214
	372.039,149.214 348.803,172.451 368.602,192.25 425.637,135.214 "/>
<g>
</g>
<g>
</g>
<g>
</g>
<g>
</g>
<g>
</g>
<g>
</g>
<g>
</g>
<g>
</g>
<g>
</g>
<g>
</g>
<g>
</g>
<g>
</g>
<g>
</g>
<g>
</g>
<g>
</g>
</svg>
